<svg width="456" height="270" viewBox="0 0 456 270" fill="none" xmlns="http://www.w3.org/2000/svg">
<rect width="456" height="270" fill="white"/>
<path d="M376.418 126.54H380.306C381.226 126.54 381.942 126.772 382.454 127.236C382.966 127.7 383.222 128.348 383.222 129.18C383.222 130.012 382.966 130.66 382.454 131.124C381.942 131.588 381.226 131.82 380.306 131.82H378.29V135H376.418V126.54ZM380.066 130.404C381.002 130.404 381.47 130 381.47 129.192C381.47 128.776 381.354 128.468 381.122 128.268C380.89 128.068 380.538 127.968 380.066 127.968H378.29V130.404H380.066ZM389.183 133.128H385.247L384.443 135H382.559L386.447 126.54H387.947L391.835 135H389.987L389.183 133.128ZM388.571 131.712L387.215 128.544L385.859 131.712H388.571ZM399.581 130.332V134.472C399.173 134.672 398.693 134.828 398.141 134.94C397.589 135.052 397.021 135.108 396.437 135.108C395.541 135.108 394.765 134.936 394.109 134.592C393.453 134.24 392.949 133.74 392.597 133.092C392.245 132.436 392.069 131.66 392.069 130.764C392.069 129.884 392.241 129.12 392.585 128.472C392.937 127.816 393.437 127.312 394.085 126.96C394.733 126.608 395.489 126.432 396.353 126.432C396.961 126.432 397.525 126.516 398.045 126.684C398.573 126.852 399.009 127.084 399.353 127.38L398.765 128.712C398.373 128.432 397.989 128.232 397.613 128.112C397.245 127.984 396.845 127.92 396.413 127.92C394.781 127.92 393.965 128.868 393.965 130.764C393.965 131.74 394.177 132.468 394.601 132.948C395.025 133.428 395.665 133.668 396.521 133.668C396.985 133.668 397.445 133.608 397.901 133.488V131.628H396.245V130.332H399.581ZM401.168 126.54H407V127.992H402.992V129.972H406.76V131.424H402.992V133.548H407V135H401.168V126.54ZM417.405 133.5V135H411.585V133.62L414.405 130.632C414.997 130.008 415.293 129.432 415.293 128.904C415.293 128.232 414.909 127.896 414.141 127.896C413.789 127.896 413.421 127.968 413.037 128.112C412.653 128.248 412.277 128.448 411.909 128.712L411.321 127.38C411.657 127.092 412.089 126.864 412.617 126.696C413.145 126.52 413.685 126.432 414.237 126.432C415.117 126.432 415.817 126.644 416.337 127.068C416.865 127.492 417.129 128.06 417.129 128.772C417.129 129.26 417.025 129.712 416.817 130.128C416.617 130.544 416.277 131.008 415.797 131.52L413.913 133.5H417.405Z" fill="#666666"/>
</svg>
