<svg width="456" height="270" viewBox="0 0 456 270" fill="none" xmlns="http://www.w3.org/2000/svg">
<rect width="456" height="270" fill="white"/>
<path d="M376.43 126.54H380.318C381.238 126.54 381.954 126.772 382.466 127.236C382.978 127.7 383.234 128.348 383.234 129.18C383.234 130.012 382.978 130.66 382.466 131.124C381.954 131.588 381.238 131.82 380.318 131.82H378.302V135H376.43V126.54ZM380.078 130.404C381.014 130.404 381.482 130 381.482 129.192C381.482 128.776 381.366 128.468 381.134 128.268C380.902 128.068 380.55 127.968 380.078 127.968H378.302V130.404H380.078ZM389.195 133.128H385.259L384.455 135H382.571L386.459 126.54H387.959L391.847 135H389.999L389.195 133.128ZM388.583 131.712L387.227 128.544L385.871 131.712H388.583ZM399.592 130.332V134.472C399.184 134.672 398.704 134.828 398.152 134.94C397.6 135.052 397.032 135.108 396.448 135.108C395.552 135.108 394.776 134.936 394.12 134.592C393.464 134.24 392.96 133.74 392.608 133.092C392.256 132.436 392.08 131.66 392.08 130.764C392.08 129.884 392.252 129.12 392.596 128.472C392.948 127.816 393.448 127.312 394.096 126.96C394.744 126.608 395.5 126.432 396.364 126.432C396.972 126.432 397.536 126.516 398.056 126.684C398.584 126.852 399.02 127.084 399.364 127.38L398.776 128.712C398.384 128.432 398 128.232 397.624 128.112C397.256 127.984 396.856 127.92 396.424 127.92C394.792 127.92 393.976 128.868 393.976 130.764C393.976 131.74 394.188 132.468 394.612 132.948C395.036 133.428 395.676 133.668 396.532 133.668C396.996 133.668 397.456 133.608 397.912 133.488V131.628H396.256V130.332H399.592ZM401.18 126.54H407.012V127.992H403.004V129.972H406.772V131.424H403.004V133.548H407.012V135H401.18V126.54ZM415.809 130.644C416.305 130.788 416.685 131.04 416.949 131.4C417.221 131.752 417.357 132.184 417.357 132.696C417.357 133.44 417.073 134.028 416.505 134.46C415.937 134.884 415.169 135.096 414.201 135.096C413.617 135.096 413.057 135.012 412.521 134.844C411.985 134.676 411.549 134.444 411.213 134.148L411.801 132.816C412.569 133.36 413.341 133.632 414.117 133.632C414.629 133.632 415.001 133.544 415.233 133.368C415.465 133.184 415.581 132.9 415.581 132.516C415.581 132.14 415.465 131.868 415.233 131.7C415.001 131.532 414.629 131.448 414.117 131.448H412.905V129.996H413.913C414.401 129.996 414.761 129.912 414.993 129.744C415.233 129.576 415.353 129.316 415.353 128.964C415.353 128.62 415.249 128.356 415.041 128.172C414.833 127.988 414.533 127.896 414.141 127.896C413.789 127.896 413.421 127.968 413.037 128.112C412.653 128.248 412.281 128.448 411.921 128.712L411.333 127.38C411.669 127.092 412.101 126.864 412.629 126.696C413.165 126.52 413.713 126.432 414.273 126.432C414.849 126.432 415.353 126.528 415.785 126.72C416.217 126.904 416.549 127.168 416.781 127.512C417.021 127.856 417.141 128.256 417.141 128.712C417.141 129.168 417.021 129.568 416.781 129.912C416.549 130.248 416.225 130.492 415.809 130.644Z" fill="#666666"/>
</svg>
