<svg width="126" height="41" viewBox="0 0 126 41" fill="none" xmlns="http://www.w3.org/2000/svg">
<g filter="url(#filter0_d)">
<rect x="1" y="1" width="124" height="38" rx="4" fill="url(#paint0_linear)"/>
<path d="M34.7845 25.45V14.7859H38.2709C39.4281 14.7859 40.2972 15.0252 40.8783 15.5037C41.4642 15.9822 41.7572 16.6902 41.7572 17.6277C41.7572 18.1258 41.6156 18.5677 41.3324 18.9534C41.0492 19.3343 40.6635 19.6297 40.1752 19.8397C40.7513 20.0008 41.2054 20.3084 41.5375 20.7625C41.8744 21.2117 42.0428 21.7488 42.0428 22.3738C42.0428 23.3309 41.7328 24.0828 41.1127 24.6297C40.4926 25.1766 39.6161 25.45 38.4833 25.45H34.7845ZM36.1908 20.4622V24.3001H38.5126C39.1669 24.3001 39.682 24.1317 40.058 23.7947C40.4388 23.4529 40.6293 22.9842 40.6293 22.3885C40.6293 21.1043 39.931 20.4622 38.5345 20.4622H36.1908ZM36.1908 19.3343H38.3148C38.9301 19.3343 39.4208 19.1805 39.787 18.8729C40.1581 18.5652 40.3436 18.1478 40.3436 17.6204C40.3436 17.0345 40.1727 16.6097 39.8309 16.346C39.4891 16.0775 38.9691 15.9432 38.2709 15.9432H36.1908V19.3343ZM51.6376 14.7859V22.0369C51.6327 23.0428 51.3153 23.8655 50.6854 24.5052C50.0604 25.1448 49.2108 25.5037 48.1366 25.5818L47.7631 25.5965C46.5961 25.5965 45.6659 25.2816 44.9725 24.6517C44.2792 24.0218 43.9276 23.1551 43.9178 22.0516V14.7859H45.3094V22.0076C45.3094 22.7791 45.5219 23.3797 45.9467 23.8094C46.3715 24.2342 46.9769 24.4466 47.7631 24.4466C48.559 24.4466 49.1669 24.2342 49.5868 23.8094C50.0116 23.3846 50.224 22.7864 50.224 22.015V14.7859H51.6376ZM61.225 15.9432H57.7972V25.45H56.3983V15.9432H52.9779V14.7859H61.225V15.9432ZM70.2924 15.9432H66.8646V25.45H65.4657V15.9432H62.0453V14.7859H70.2924V15.9432ZM79.8724 20.4622C79.8724 21.5071 79.6967 22.4202 79.3451 23.2015C78.9935 23.9778 78.4955 24.5711 77.851 24.9813C77.2064 25.3914 76.4545 25.5965 75.5951 25.5965C74.7552 25.5965 74.0106 25.3914 73.3612 24.9813C72.7118 24.5662 72.2064 23.9778 71.8451 23.2161C71.4886 22.4495 71.3055 21.5633 71.2958 20.5574V19.7884C71.2958 18.763 71.474 17.8572 71.8304 17.0711C72.1869 16.285 72.6898 15.6844 73.3392 15.2693C73.9935 14.8494 74.7406 14.6395 75.5804 14.6395C76.4349 14.6395 77.1869 14.847 77.8363 15.262C78.4906 15.6722 78.9935 16.2703 79.3451 17.0565C79.6967 17.8377 79.8724 18.7484 79.8724 19.7884V20.4622ZM78.4735 19.7737C78.4735 18.5091 78.2196 17.5399 77.7118 16.866C77.204 16.1873 76.4935 15.848 75.5804 15.848C74.6918 15.848 73.9911 16.1873 73.4784 16.866C72.9706 17.5399 72.7094 18.4774 72.6947 19.6785V20.4622C72.6947 21.6878 72.951 22.6522 73.4637 23.3553C73.9813 24.0535 74.6918 24.4026 75.5951 24.4026C76.5033 24.4026 77.2064 24.0731 77.7045 23.4139C78.2025 22.7498 78.4589 21.8001 78.4735 20.5648V19.7737ZM90.1776 25.45H88.764L83.3954 17.2322V25.45H81.9818V14.7859H83.3954L88.7787 23.0403V14.7859H90.1776V25.45Z" fill="white"/>
</g>
<defs>
<filter id="filter0_d" x="0" y="1" width="126" height="40" filterUnits="userSpaceOnUse" color-interpolation-filters="sRGB">
<feFlood flood-opacity="0" result="BackgroundImageFix"/>
<feColorMatrix in="SourceAlpha" type="matrix" values="0 0 0 0 0 0 0 0 0 0 0 0 0 0 0 0 0 0 127 0"/>
<feOffset dy="1"/>
<feGaussianBlur stdDeviation="0.5"/>
<feColorMatrix type="matrix" values="0 0 0 0 0 0 0 0 0 0 0 0 0 0 0 0 0 0 0.25 0"/>
<feBlend mode="normal" in2="BackgroundImageFix" result="effect1_dropShadow"/>
<feBlend mode="normal" in="SourceGraphic" in2="effect1_dropShadow" result="shape"/>
</filter>
<linearGradient id="paint0_linear" x1="125" y1="39" x2="-0.950612" y2="20.9509" gradientUnits="userSpaceOnUse">
<stop offset="0.325967" stop-color="#51B441"/>
<stop offset="1" stop-color="#61C451"/>
</linearGradient>
</defs>
</svg>
