<svg width="130" height="44" viewBox="0 0 130 44" fill="none" xmlns="http://www.w3.org/2000/svg">
<g filter="url(#filter0_d)">
<rect x="2" y="1" width="126" height="40" rx="4" fill="url(#paint0_linear)"/>
<path d="M35.4453 27V15.625H39.1641C40.3984 15.625 41.3255 15.8802 41.9453 16.3906C42.5703 16.901 42.8828 17.6562 42.8828 18.6562C42.8828 19.1875 42.7318 19.6589 42.4297 20.0703C42.1276 20.4766 41.7161 20.7917 41.1953 21.0156C41.8099 21.1875 42.2943 21.5156 42.6484 22C43.0078 22.4792 43.1875 23.0521 43.1875 23.7188C43.1875 24.7396 42.8568 25.5417 42.1953 26.125C41.5339 26.7083 40.599 27 39.3906 27H35.4453ZM36.9453 21.6797V25.7734H39.4219C40.1198 25.7734 40.6693 25.5938 41.0703 25.2344C41.4766 24.8698 41.6797 24.3698 41.6797 23.7344C41.6797 22.3646 40.9349 21.6797 39.4453 21.6797H36.9453ZM36.9453 20.4766H39.2109C39.8672 20.4766 40.3906 20.3125 40.7812 19.9844C41.1771 19.6562 41.375 19.2109 41.375 18.6484C41.375 18.0234 41.1927 17.5703 40.8281 17.2891C40.4635 17.0026 39.9089 16.8594 39.1641 16.8594H36.9453V20.4766ZM53.4219 15.625V23.3594C53.4167 24.4323 53.0781 25.3099 52.4062 25.9922C51.7396 26.6745 50.8333 27.0573 49.6875 27.1406L49.2891 27.1562C48.0443 27.1562 47.0521 26.8203 46.3125 26.1484C45.5729 25.4766 45.1979 24.5521 45.1875 23.375V15.625H46.6719V23.3281C46.6719 24.151 46.8984 24.7917 47.3516 25.25C47.8047 25.7031 48.4505 25.9297 49.2891 25.9297C50.138 25.9297 50.7865 25.7031 51.2344 25.25C51.6875 24.7969 51.9141 24.1589 51.9141 23.3359V15.625H53.4219ZM63.6484 16.8594H59.9922V27H58.5V16.8594H54.8516V15.625H63.6484V16.8594ZM73.3203 16.8594H69.6641V27H68.1719V16.8594H64.5234V15.625H73.3203V16.8594ZM83.5391 21.6797C83.5391 22.7943 83.3516 23.7682 82.9766 24.6016C82.6016 25.4297 82.0703 26.0625 81.3828 26.5C80.6953 26.9375 79.8932 27.1562 78.9766 27.1562C78.0807 27.1562 77.2865 26.9375 76.5938 26.5C75.901 26.0573 75.362 25.4297 74.9766 24.6172C74.5964 23.7995 74.401 22.8542 74.3906 21.7812V20.9609C74.3906 19.8672 74.5807 18.901 74.9609 18.0625C75.3411 17.224 75.8776 16.5833 76.5703 16.1406C77.2682 15.6927 78.0651 15.4688 78.9609 15.4688C79.8724 15.4688 80.6745 15.6901 81.3672 16.1328C82.0651 16.5703 82.6016 17.2083 82.9766 18.0469C83.3516 18.8802 83.5391 19.8516 83.5391 20.9609V21.6797ZM82.0469 20.9453C82.0469 19.5964 81.776 18.5625 81.2344 17.8438C80.6927 17.1198 79.9349 16.7578 78.9609 16.7578C78.013 16.7578 77.2656 17.1198 76.7188 17.8438C76.1771 18.5625 75.8984 19.5625 75.8828 20.8438V21.6797C75.8828 22.987 76.1562 24.0156 76.7031 24.7656C77.2552 25.5104 78.013 25.8828 78.9766 25.8828C79.9453 25.8828 80.6953 25.5312 81.2266 24.8281C81.7578 24.1198 82.0312 23.1068 82.0469 21.7891V20.9453ZM94.5312 27H93.0234L87.2969 18.2344V27H85.7891V15.625H87.2969L93.0391 24.4297V15.625H94.5312V27Z" fill="#E0E0E0"/>
</g>
<defs>
<filter id="filter0_d" x="0" y="0" width="130" height="44" filterUnits="userSpaceOnUse" color-interpolation-filters="sRGB">
<feFlood flood-opacity="0" result="BackgroundImageFix"/>
<feColorMatrix in="SourceAlpha" type="matrix" values="0 0 0 0 0 0 0 0 0 0 0 0 0 0 0 0 0 0 127 0"/>
<feOffset dy="1"/>
<feGaussianBlur stdDeviation="1"/>
<feColorMatrix type="matrix" values="0 0 0 0 0 0 0 0 0 0 0 0 0 0 0 0 0 0 0.15 0"/>
<feBlend mode="normal" in2="BackgroundImageFix" result="effect1_dropShadow"/>
<feBlend mode="normal" in="SourceGraphic" in2="effect1_dropShadow" result="shape"/>
</filter>
<linearGradient id="paint0_linear" x1="128" y1="41" x2="-0.157829" y2="23.2714" gradientUnits="userSpaceOnUse">
<stop offset="0.325967" stop-color="#A6B4A4"/>
<stop offset="1" stop-color="#BDC4BC"/>
</linearGradient>
</defs>
</svg>
